{"title":"Snowpiercer.2013.BRRip.x264.AC3 - BiTo","uid":9802178,"size":1299614451,"categoryP":"video","categoryS":"movies","magnet":"?xt=urn:btih:242841f05f098ac50640dc4647b3f1701f767479&amp;dn=Snowpiercer.2013.BRRip.x264.AC3+-+BiTo&amp;tr=udp%3A%2F%2Ftracker.openbittorrent.com%3A80&amp;tr=udp%3A%2F%2Fopen.demonii.com%3A1337&amp;tr=udp%3A%2F%2Ftracker.coppersurfer.tk%3A6969&amp;tr=udp%3A%2F%2Fexodus.desync.com%3A6969","seeders":20,"leechers":1,"uploader":"xxxlavalxxx","files":-1,"time":1395397227,"description":" &lt;a href=&quot;\nhttp://www.imdb.com/title/tt1706620/&quot; rel=&quot;nofollow&quot; target=&quot;_NEW&quot;&gt;\nhttp://www.imdb.com/title/tt1706620/&lt;/a&gt;\n\n\nIn a future where a failed global-warming experiment kills off most life on the planet, a class system evolves aboard the Snowpiercer, a train that travels around the globe via a perpetual-motion engine.\n\nDirector: Joon-ho Bong\nWriters: Joon-ho Bong (screenplay), Kelly Masterson (screenplay)Swinton, Jamie Bell \nGenres: Action | Drama | Sci-Fi\nCountry: South Korea | USA | France | Czech Republic\nLanguage: English | Korean | Japanese | French\n\n\n\nSource: Bluray\nAduio: AC3 @ 6CH ENG\nCodex: x264\nSubs: Nah\n\nVideo\nID                                       : 1\nFormat                                   : AVC\nFormat/Info                              : Advanced Video Codec\nFormat profile                           : &lt;a class=&quot;__cf_email__&quot; href=&quot;/cdn-cgi/l/email-protection&quot; data-cfemail=&quot;743c1d131c3438475a45&quot;&gt;[email&amp;#160;protected]&lt;/a&gt;&lt;script cf-hash='f9e31' type=&quot;text/javascript&quot;&gt;\n/* &lt;![CDATA[ */!function(){try{var t=&quot;currentScript&quot;in document?document.currentScript:function(){for(var t=document.getElementsByTagName(&quot;script&quot;),e=t.length;e--;)if(t[e].getAttribute(&quot;cf-hash&quot;))return t[e]}();if(t&amp;&amp;t.previousSibling){var e,r,n,i,c=t.previousSibling,a=c.getAttribute(&quot;data-cfemail&quot;);if(a){for(e=&quot;&quot;,r=parseInt(a.substr(0,2),16),n=2;a.length-n;n+=2)i=parseInt(a.substr(n,2),16)^r,e+=String.fromCharCode(i);e=document.createTextNode(e),c.parentNode.replaceChild(e,c)}}}catch(u){}}();/* ]]&gt; */&lt;/script&gt;\nFormat settings, CABAC                   : Yes\nFormat settings, ReFrames                : 5 frames\nCodec ID                                 : V_MPEG4/ISO/AVC\nDuration                                 : 2h 5mn\nBit rate                                 : 901 Kbps\nWidth                                    : 720 pixels\nHeight                                   : 388 pixels\nDisplay aspect ratio                     : 1.85:1\nFrame rate mode                          : Constant\nFrame rate                               : 23.976 fps\nColor space                              : YUV\nChroma subsampling                       : 4:2:0\nBit depth                                : 8 bits\nScan type                                : Progressive\nBits/(Pixel*Frame)                       : 0.135\nStream size                              : 811 MiB (65%)\nWriting library                          : x264 core 142 r2409 d6b4e63\nLanguage                                 : English\nDefault                                  : Yes\nForced                                   : No\nMatrix coefficients                      : BT.709\n\nAudio\nID                                       : 2\nFormat                                   : AC-3\nFormat/Info                              : Audio Coding 3\nMode extension                           : CM (complete main)\nFormat settings, Endianness              : Big\nCodec ID                                 : A_AC3\nDuration                                 : 2h 5mn\nBit rate mode                            : Constant\nBit rate                                 : 448 Kbps\nChannel(s)                               : 6 channels\nChannel positions                        : Front: L C R, Side: L R, LFE\nSampling rate                            : 48.0 KHz\nBit depth                                : 16 bits\nCompression mode                         : Lossy\nStream size                              : 403 MiB (33%)\nDefault                                  : Yes\nForced                                   : No\n\n\nscreens\n &lt;a href=&quot;\nhttp://i.imgur.com/91d98u2.jpg&quot; rel=&quot;nofollow&quot; target=&quot;_NEW&quot;&gt;\nhttp://i.imgur.com/91d98u2.jpg&lt;/a&gt; &lt;a href=&quot;\nhttp://i.imgur.com/jGqcWcj.jpg&quot; rel=&quot;nofollow&quot; target=&quot;_NEW&quot;&gt;\nhttp://i.imgur.com/jGqcWcj.jpg&lt;/a&gt; &lt;a href=&quot;\nhttp://i.imgur.com/CWgiL6F.jpg&quot; rel=&quot;nofollow&quot; target=&quot;_NEW&quot;&gt;\nhttp://i.imgur.com/CWgiL6F.jpg&lt;/a&gt; &lt;a href=&quot;\nhttp://i.imgur.com/XqsJIeF.jpg&quot; rel=&quot;nofollow&quot; target=&quot;_NEW&quot;&gt;\nhttp://i.imgur.com/XqsJIeF.jpg&lt;/a&gt; &lt;a href=&quot;\nhttp://i.imgur.com/hziFEyg.jpg&quot; rel=&quot;nofollow&quot; target=&quot;_NEW&quot;&gt;\nhttp://i.imgur.com/hziFEyg.jpg&lt;/a&gt;\n","torrent":{"xt":"urn:btih:242841f05f098ac50640dc4647b3f1701f767479","amp;dn":"Snowpiercer.2013.BRRip.x264.AC3+-+BiTo","amp;tr":["udp%3A%2F%2Ftracker.openbittorrent.com%3A80","udp%3A%2F%2Fopen.demonii.com%3A1337","udp%3A%2F%2Ftracker.coppersurfer.tk%3A6969","udp%3A%2F%2Fexodus.desync.com%3A6969"],"infoHash":"242841f05f098ac50640dc4647b3f1701f767479","infoHashBuffer":{"type":"Buffer","data":[36,40,65,240,95,9,138,197,6,64,220,70,71,179,241,112,31,118,116,121]},"announce":[],"urlList":[]}}